<?xml version="1.0" encoding="UTF-8"?>
<!-- Generator: visioncortex VTracer -->
<svg id="svg" version="1.1" xmlns="http://www.w3.org/2000/svg" style="display: block;" viewBox="0 0 141 141"><path d="M0,0 L1,0 L1,1 L2,1 L2,2 L4,2 L4,3 L6,3 L6,4 L8,4 L8,5 L9,5 L9,6 L10,6 L10,7 L12,7 L12,11 L13,11 L13,23 L12,23 L12,25 L32,25 L32,27 L33,27 L33,30 L34,30 L34,32 L35,32 L35,34 L36,34 L36,35 L37,35 L37,37 L38,37 L38,38 L39,38 L39,39 L40,39 L40,40 L42,40 L42,41 L43,41 L43,42 L46,42 L46,43 L47,43 L47,44 L48,44 L48,43 L49,43 L49,44 L50,44 L50,45 L51,45 L51,66 L50,66 L50,72 L49,72 L49,77 L48,77 L48,81 L47,81 L47,84 L46,84 L46,87 L45,87 L45,90 L44,90 L44,92 L43,92 L43,95 L42,95 L42,97 L41,97 L41,99 L40,99 L40,101 L39,101 L39,102 L38,102 L38,104 L37,104 L37,105 L36,105 L36,107 L35,107 L35,109 L34,109 L34,110 L33,110 L33,111 L32,111 L32,113 L31,113 L31,114 L30,114 L30,115 L29,115 L29,116 L28,116 L28,118 L27,118 L27,119 L26,119 L26,120 L25,120 L25,121 L24,121 L24,122 L23,122 L23,123 L22,123 L22,124 L21,124 L21,125 L20,125 L20,126 L18,126 L18,127 L17,127 L17,128 L16,128 L16,129 L15,129 L15,130 L13,130 L13,131 L12,131 L12,132 L11,132 L11,133 L9,133 L9,134 L8,134 L8,135 L6,135 L6,136 L5,136 L5,137 L3,137 L3,138 L2,138 L2,139 L-1,139 L-1,138 L-3,138 L-3,137 L-4,137 L-4,136 L-6,136 L-6,135 L-8,135 L-8,134 L-9,134 L-9,133 L-11,133 L-11,132 L-12,132 L-12,131 L-13,131 L-13,130 L-15,130 L-15,129 L-16,129 L-16,128 L-17,128 L-17,127 L-18,127 L-18,126 L-19,126 L-19,125 L-20,125 L-20,124 L-21,124 L-21,123 L-23,123 L-23,122 L-24,122 L-24,121 L-25,121 L-25,120 L-26,120 L-26,118 L-27,118 L-27,117 L-28,117 L-28,116 L-29,116 L-29,115 L-30,115 L-30,114 L-31,114 L-31,112 L-32,112 L-32,111 L-33,111 L-33,110 L-34,110 L-34,108 L-35,108 L-35,107 L-36,107 L-36,106 L-37,106 L-37,104 L-38,104 L-38,102 L-39,102 L-39,100 L-40,100 L-40,98 L-41,98 L-41,97 L-42,97 L-42,94 L-43,94 L-43,92 L-44,92 L-44,89 L-45,89 L-45,87 L-46,87 L-46,84 L-47,84 L-47,82 L-48,82 L-48,77 L-49,77 L-49,72 L-50,72 L-50,67 L-51,67 L-51,56 L-52,56 L-52,50 L-51,50 L-51,45 L-50,45 L-50,44 L-48,44 L-48,43 L-45,43 L-45,42 L-43,42 L-43,41 L-42,41 L-42,40 L-40,40 L-40,39 L-39,39 L-39,38 L-38,38 L-38,37 L-37,37 L-37,35 L-36,35 L-36,34 L-35,34 L-35,32 L-34,32 L-34,30 L-33,30 L-33,27 L-32,27 L-32,26 L-31,26 L-31,25 L-15,25 L-15,26 L-13,26 L-13,25 L-12,25 L-12,7 L-10,7 L-10,6 L-9,6 L-9,5 L-7,5 L-7,4 L-6,4 L-6,3 L-4,3 L-4,2 L-2,2 L-2,1 L0,1 Z M-13,31 L-13,32 L-12,32 L-12,31 Z M-1,10 L-1,12 L-4,12 L-4,79 L4,79 L4,49 L-3,49 L-3,40 L22,40 L22,41 L23,41 L23,43 L24,43 L24,44 L25,44 L25,46 L26,46 L26,47 L27,47 L27,48 L28,48 L28,49 L29,49 L29,50 L30,50 L30,51 L32,51 L32,52 L33,52 L33,53 L34,53 L34,54 L36,54 L36,55 L37,55 L37,56 L36,56 L36,66 L35,66 L35,71 L34,71 L34,75 L33,75 L33,78 L32,78 L32,81 L31,81 L31,84 L30,84 L30,87 L29,87 L29,89 L28,89 L28,91 L27,91 L27,93 L26,93 L26,95 L25,95 L25,96 L24,96 L24,98 L23,98 L23,100 L22,100 L22,101 L21,101 L21,102 L20,102 L20,104 L19,104 L19,105 L18,105 L18,106 L17,106 L17,107 L16,107 L16,108 L15,108 L15,109 L14,109 L14,111 L12,111 L12,112 L11,112 L11,113 L10,113 L10,114 L9,114 L9,115 L8,115 L8,116 L7,116 L7,117 L6,117 L6,118 L4,118 L4,119 L3,119 L3,120 L2,120 L2,121 L1,121 L1,122 L0,122 L0,121 L-2,121 L-2,120 L-3,120 L-3,119 L-4,119 L-4,118 L-6,118 L-6,117 L-7,117 L-7,116 L-8,116 L-8,115 L-9,115 L-9,114 L-10,114 L-10,113 L-11,113 L-11,112 L-13,112 L-13,111 L-14,111 L-14,109 L-15,109 L-15,108 L-16,108 L-16,107 L-17,107 L-17,106 L-18,106 L-18,105 L-19,105 L-19,103 L-20,103 L-20,102 L-21,102 L-21,101 L-22,101 L-22,99 L-23,99 L-23,98 L-24,98 L-24,96 L-25,96 L-25,95 L-26,95 L-26,93 L-27,93 L-27,91 L-28,91 L-28,89 L-29,89 L-29,87 L-30,87 L-30,85 L-31,85 L-31,82 L-32,82 L-32,79 L-33,79 L-33,76 L-34,76 L-34,71 L-35,71 L-35,67 L-36,67 L-36,57 L-37,57 L-37,55 L-36,55 L-36,54 L-34,54 L-34,53 L-33,53 L-33,52 L-32,52 L-32,51 L-30,51 L-30,50 L-29,50 L-29,49 L-28,49 L-28,48 L-27,48 L-27,47 L-26,47 L-26,46 L-25,46 L-25,44 L-24,44 L-24,43 L-23,43 L-23,41 L-21,41 L-21,40 L-14,40 L-14,41 L-13,41 L-13,48 L-14,48 L-14,49 L-18,49 L-18,50 L-19,50 L-19,52 L-20,52 L-20,53 L-21,53 L-21,54 L-22,54 L-22,55 L-23,55 L-23,56 L-24,56 L-24,57 L-25,57 L-25,58 L-26,58 L-26,59 L-27,59 L-27,67 L-26,67 L-26,73 L-25,73 L-25,76 L-24,76 L-24,78 L-23,78 L-23,81 L-22,81 L-22,84 L-21,84 L-21,86 L-20,86 L-20,88 L-19,88 L-19,89 L-18,89 L-18,91 L-17,91 L-17,92 L-16,92 L-16,94 L-15,94 L-15,96 L-14,96 L-14,97 L-13,97 L-13,98 L-12,98 L-12,100 L-11,100 L-11,101 L-10,101 L-10,102 L-9,102 L-9,103 L-8,103 L-8,104 L-7,104 L-7,105 L-6,105 L-6,106 L-5,106 L-5,88 L-18,88 L-18,87 L-19,87 L-19,79 L-13,79 L-13,78 L-12,78 L-12,77 L-13,77 L-13,76 L-12,76 L-12,34 L-26,34 L-26,35 L-27,35 L-27,37 L-28,37 L-28,40 L-29,40 L-29,41 L-30,41 L-30,42 L-31,42 L-31,43 L-32,43 L-32,44 L-33,44 L-33,45 L-34,45 L-34,46 L-35,46 L-35,47 L-36,47 L-36,48 L-38,48 L-38,49 L-39,49 L-39,50 L-42,50 L-42,51 L-43,51 L-43,59 L-42,59 L-42,67 L-41,67 L-41,69 L-42,69 L-42,70 L-41,70 L-41,74 L-40,74 L-40,78 L-39,78 L-39,79 L-38,79 L-38,83 L-37,83 L-37,85 L-36,85 L-36,89 L-35,89 L-35,91 L-34,91 L-34,93 L-33,93 L-33,94 L-32,94 L-32,97 L-31,97 L-31,98 L-30,98 L-30,100 L-29,100 L-29,102 L-28,102 L-28,103 L-27,103 L-27,104 L-26,104 L-26,106 L-25,106 L-25,107 L-24,107 L-24,109 L-23,109 L-23,110 L-22,110 L-22,111 L-21,111 L-21,112 L-20,112 L-20,113 L-19,113 L-19,114 L-18,114 L-18,115 L-17,115 L-17,116 L-16,116 L-16,117 L-15,117 L-15,118 L-14,118 L-14,119 L-13,119 L-13,120 L-12,120 L-12,121 L-11,121 L-11,122 L-10,122 L-10,123 L-8,123 L-8,124 L-7,124 L-7,125 L-6,125 L-6,126 L-4,126 L-4,127 L-3,127 L-3,128 L-1,128 L-1,129 L1,129 L1,128 L3,128 L3,127 L4,127 L4,126 L6,126 L6,125 L7,125 L7,124 L8,124 L8,123 L10,123 L10,122 L11,122 L11,121 L12,121 L12,120 L13,120 L13,119 L14,119 L14,118 L15,118 L15,117 L16,117 L16,116 L17,116 L17,115 L18,115 L18,114 L19,114 L19,113 L20,113 L20,112 L21,112 L21,111 L22,111 L22,110 L23,110 L23,109 L24,109 L24,107 L25,107 L25,106 L26,106 L26,105 L27,105 L27,103 L28,103 L28,102 L29,102 L29,100 L30,100 L30,98 L31,98 L31,96 L32,96 L32,95 L33,95 L33,93 L34,93 L34,91 L35,91 L35,88 L36,88 L36,86 L37,86 L37,83 L38,83 L38,80 L39,80 L39,77 L40,77 L40,73 L41,73 L41,68 L42,68 L42,59 L43,59 L43,52 L42,52 L42,50 L40,50 L40,49 L38,49 L38,48 L37,48 L37,47 L36,47 L36,46 L34,46 L34,45 L33,45 L33,44 L32,44 L32,43 L31,43 L31,42 L30,42 L30,40 L29,40 L29,39 L28,39 L28,37 L27,37 L27,36 L26,36 L26,34 L-2,34 L-2,33 L-3,33 L-3,25 L4,25 L4,12 L2,12 L2,11 L1,11 L1,10 Z M12,49 L12,57 L13,57 L13,72 L12,72 L12,73 L13,73 L13,78 L15,78 L15,79 L19,79 L19,87 L20,87 L20,85 L21,85 L21,83 L22,83 L22,80 L23,80 L23,78 L24,78 L24,76 L25,76 L25,71 L26,71 L26,66 L27,66 L27,60 L28,60 L28,59 L27,59 L27,58 L25,58 L25,57 L24,57 L24,56 L23,56 L23,55 L22,55 L22,54 L21,54 L21,53 L20,53 L20,52 L19,52 L19,51 L18,51 L18,49 Z M12,78 L12,79 L13,79 L13,78 Z M18,87 L18,88 L4,88 L4,107 L5,107 L5,106 L6,106 L6,105 L7,105 L7,104 L8,104 L8,103 L9,103 L9,102 L10,102 L10,101 L11,101 L11,100 L12,100 L12,98 L13,98 L13,97 L14,97 L14,96 L15,96 L15,94 L16,94 L16,92 L17,92 L17,91 L18,91 L18,89 L19,89 L19,87 Z " transform="translate(70,1)" style="fill: #92A1CA;"/></svg>